<svg width="75" height="76" viewBox="0 0 75 76" fill="none" xmlns="http://www.w3.org/2000/svg">
<path d="M42.1453 18.4089C42.2409 18.434 42.3365 18.4591 42.4351 18.485C45.4097 19.2871 47.9925 20.6478 50.3365 22.6508C50.4581 22.7528 50.5797 22.8548 50.705 22.9599C53.4591 25.3418 55.4872 28.6664 56.4799 32.1585C56.5231 32.3052 56.5663 32.4519 56.6107 32.603C57.9843 37.6237 57.162 43.1599 54.6321 47.677C52.9668 50.5113 50.6859 52.6997 47.9961 54.5381C47.8775 54.6197 47.7589 54.7013 47.6367 54.7855C43.4869 57.4527 37.9845 58.1815 33.209 57.1704C30.3761 56.5022 27.5308 55.2967 25.324 53.3679C24.863 53.5717 24.5544 53.8103 24.2018 54.169C24.1047 54.267 24.0076 54.365 23.9076 54.4661C23.8078 54.5683 23.7081 54.6705 23.6053 54.7758C23.5033 54.8791 23.4013 54.9824 23.2962 55.0889C23.0451 55.3434 22.7947 55.5987 22.5448 55.8545C22.774 56.3411 23.0175 56.6393 23.4133 57.0064C24.0675 57.6511 24.4528 58.1849 24.5287 59.1182C24.4616 60.4536 23.2895 61.4638 22.3936 62.3522C22.2791 62.4675 22.1645 62.5828 22.0465 62.7016C21.6707 63.0793 21.2934 63.4554 20.9159 63.8315C20.652 64.0956 20.3882 64.3599 20.1244 64.6241C19.5725 65.1768 19.0197 65.7286 18.4664 66.2798C17.8303 66.9136 17.1958 67.5488 16.5621 68.185C15.9483 68.801 15.3332 69.4158 14.7177 70.0301C14.4578 70.2897 14.1983 70.5496 13.9391 70.8098C10.5731 74.1862 10.5731 74.1862 8.50276 74.8698C8.35795 74.9181 8.21314 74.9664 8.06394 75.0161C5.88263 75.2182 4.11582 74.9231 2.35934 73.5534C1.94795 73.1786 1.94795 73.1786 1.62798 72.822C1.48317 72.6636 1.48317 72.6636 1.33544 72.5021C0.179613 70.8767 -0.181714 69.1987 0.0818453 67.234C0.671585 64.1615 3.52837 61.9743 5.6436 59.8541C5.76349 59.7338 5.88339 59.6135 6.00691 59.4896C6.63934 58.855 7.27218 58.2208 7.90539 57.5869C8.55738 56.9341 9.208 56.28 9.85833 55.6255C10.3613 55.1198 10.8652 54.6151 11.3694 54.1107C11.6098 53.8698 11.8499 53.6286 12.0895 53.3871C12.424 53.05 12.7599 52.7144 13.0962 52.3791C13.1939 52.28 13.2917 52.1809 13.3924 52.0789C14.1448 51.333 14.9121 50.6535 16.0266 50.6436C16.9133 50.6788 17.3871 51.009 18.0104 51.6126C18.1092 51.7071 18.208 51.8016 18.3098 51.8989C18.5561 52.1407 18.7971 52.3859 19.0343 52.6365C19.6926 52.0953 20.3213 51.5262 20.9359 50.9361C21.0467 50.8336 21.0467 50.8336 21.1597 50.7291C21.5502 50.3643 21.5502 50.3643 21.6809 49.8682C21.445 49.4208 21.1554 49.016 20.8627 48.6049C17.8838 44.2484 16.9962 39.0671 17.867 33.9017C18.0651 32.8482 18.3732 31.8473 18.7418 30.842C18.7957 30.6929 18.8496 30.5437 18.9052 30.3901C20.6503 25.9069 24.0873 22.1477 28.3957 20.0179C28.5409 19.9446 28.6861 19.8712 28.8357 19.7957C32.8564 17.8446 37.7977 17.2646 42.1453 18.4089Z" fill="#A2659C"/>
<path d="M61.3069 0.710059C61.4355 0.752295 61.564 0.794531 61.6965 0.838046C63.2804 1.40119 64.7096 2.41317 65.9876 3.48922C66.1655 3.63771 66.1655 3.63771 66.3469 3.78919C67.266 4.58397 68.0282 5.45188 68.7667 6.41466C68.8644 6.53929 68.9621 6.66392 69.0627 6.79234C74.2348 13.6102 75.7318 23.1623 74.6872 31.4901C74.129 35.4793 72.9828 39.2136 71.2584 42.8484C69.7719 46.024 68.8791 49.3414 68.8947 52.8559C68.8941 52.9836 68.8936 53.1112 68.893 53.2428C68.8939 53.8714 68.9163 54.4873 68.985 55.1123C69.418 59.0743 68.7859 62.7492 66.3167 65.9473C65.2301 67.2606 64.1145 68.3272 62.6233 69.1652C62.4451 69.2665 62.4451 69.2665 62.2633 69.3698C59.4669 70.8631 55.8111 71.1513 52.7757 70.2474C49.4295 68.9744 46.6672 66.8818 45.0707 63.6069C44.1931 61.4808 44.1931 61.4808 44.1931 60.6815C44.3454 60.6317 44.4978 60.5819 44.6547 60.5306C47.6349 59.5329 50.4567 58.0886 52.8231 56.0008C52.9494 55.8905 53.0758 55.7802 53.2059 55.6665C53.5703 55.3436 53.9292 55.0158 54.2858 54.6843C54.4343 54.5477 54.4343 54.5477 54.5858 54.4084C57.2802 51.8328 59.204 48.2758 60.283 44.7379C60.3382 44.5614 60.3934 44.3849 60.4504 44.203C61.7248 39.8118 61.6588 35.0543 60.283 30.6958C60.2546 30.6019 60.2262 30.5081 60.197 30.4114C59.3812 27.7421 58.0482 25.286 56.3336 23.0896C56.2273 22.9509 56.1209 22.8121 56.0114 22.6691C54.0081 20.1325 51.5605 18.132 48.6948 16.643C48.4618 16.5214 48.2314 16.395 48.0013 16.268C46.099 15.2515 43.9674 14.5723 41.8527 14.1671C41.6847 13.6766 41.7231 13.4243 41.9236 12.9506C42.0009 12.7669 42.0009 12.7669 42.0798 12.5795C42.1665 12.3834 42.1665 12.3834 42.255 12.1832C42.3441 11.9795 42.3441 11.9795 42.435 11.7716C44.563 7.02141 47.9623 2.72859 52.9077 0.747198C55.5405 -0.217567 58.6669 -0.267216 61.3069 0.710059Z" fill="#A2659C"/>
</svg>
