<svg width="77" height="77" viewBox="0 0 77 77" fill="none" xmlns="http://www.w3.org/2000/svg">
<path d="M44.9454 1.43944C45.0656 1.46061 45.1858 1.48178 45.3097 1.5036C50.8595 2.50549 56.4252 4.7257 60.9122 8.17772C61.0687 8.29515 61.2253 8.41245 61.382 8.52963C62.3958 9.29268 63.3479 10.1003 64.2813 10.9609C64.4067 11.0712 64.5321 11.1815 64.6613 11.2951C65.4291 11.9704 66.1148 12.6687 66.7715 13.4512C66.9332 13.6313 67.0949 13.8114 67.2568 13.9913C72.5885 20.1288 75.9868 28.5404 76.0298 36.7067C76.0308 36.8382 76.0319 36.9697 76.0329 37.1052C76.0667 42.6565 76.0667 42.6565 75.5606 45.2383C75.517 45.4637 75.517 45.4637 75.4724 45.6936C74.8136 48.987 73.8144 52.1794 72.338 55.1992C72.2793 55.3202 72.2206 55.4411 72.1601 55.5657C70.5022 58.9475 68.3344 61.9047 65.7736 64.6566C65.686 64.7508 65.5984 64.8449 65.5082 64.942C64.8897 65.5948 64.2337 66.1891 63.5489 66.7715C63.408 66.8933 63.2672 67.0151 63.122 67.1405C58.1571 71.34 52.1226 74.1575 45.7602 75.4598C45.6549 75.4814 45.5496 75.503 45.4411 75.5252C43.2192 75.9475 41.0131 76.0598 38.7564 76.0549C38.6157 76.0548 38.475 76.0548 38.33 76.0547C29.9842 76.0331 21.544 73.3035 15.0626 67.9433C14.9834 67.878 14.9042 67.8127 14.8226 67.7454C14.2617 67.2813 13.7082 66.8091 13.1583 66.332C12.9557 66.157 12.9557 66.157 12.7491 65.9784C12.0971 65.4042 11.4945 64.8191 10.9352 64.1542C10.6281 63.7951 10.3048 63.4539 9.98138 63.1094C7.76416 60.6644 6.01364 57.8573 4.57062 54.8971C4.46143 54.6752 4.46143 54.6752 4.35003 54.4488C3.33539 52.3053 3.00731 50.2964 3.78326 48.0215C4.54401 46.2547 5.85946 45.0508 7.61932 44.3136C9.37093 43.6661 11.2141 43.7857 12.93 44.5104C15.0273 45.5901 15.9146 47.3612 16.9394 49.3856C17.5984 50.6662 18.2861 51.8566 19.1641 53.0019C19.2616 53.13 19.359 53.258 19.4594 53.3899C19.7448 53.7551 20.0374 54.1122 20.336 54.4668C20.4382 54.5888 20.5403 54.7108 20.6456 54.8364C21.4404 55.7541 22.3098 56.5052 23.2657 57.25C23.4052 57.3659 23.5448 57.4819 23.6885 57.6013C28.3771 61.4074 34.8185 63.1121 40.7902 62.5601C45.2309 62.0899 49.7996 60.5269 53.295 57.6894C53.4209 57.5928 53.5469 57.4961 53.6766 57.3965C58.523 53.5921 61.6999 47.9128 62.4783 41.7896C63.0894 34.9435 61.5729 28.55 57.2501 23.1191C56.825 22.6164 56.3839 22.1327 55.9317 21.6543C55.8224 21.5355 55.713 21.4167 55.6004 21.2944C51.3829 16.8677 45.1394 14.6179 39.1236 14.4664C33.0105 14.4207 26.9223 16.4179 22.412 20.626C22.1331 20.8854 21.8479 21.129 21.5536 21.3705C20.4548 22.3105 19.5136 23.5229 18.7247 24.7305C18.7247 24.8755 18.7247 25.0205 18.7247 25.1699C18.9666 25.4067 18.9666 25.4067 19.2923 25.6254C19.4126 25.7119 19.5329 25.7983 19.6568 25.8875C19.7842 25.977 19.9117 26.0665 20.043 26.1587C22.6288 27.9938 22.6288 27.9938 22.9727 28.832C23.0691 29.5737 23.0593 30.2348 22.7713 30.9286C21.8175 31.9051 20.4394 32.4635 19.2297 33.0651C19.0673 33.1464 18.9049 33.2277 18.7376 33.3115C18.2972 33.532 17.8566 33.7518 17.4158 33.9715C16.9529 34.2023 16.4903 34.4337 16.0276 34.6651C15.2522 35.0527 14.4766 35.4399 13.7009 35.8268C12.8043 36.2739 11.908 36.7217 11.0119 37.1698C10.0555 37.648 9.09892 38.1258 8.14227 38.6034C7.86716 38.7408 7.59209 38.8783 7.31703 39.0158C6.80563 39.2714 6.29398 39.5266 5.7823 39.7816C5.55389 39.8959 5.55389 39.8959 5.32088 40.0124C5.11238 40.1162 5.11238 40.1162 4.89967 40.2221C4.77884 40.2824 4.65799 40.3427 4.53349 40.4048C3.83778 40.7316 3.19811 40.841 2.45117 40.5971C1.72617 40.2711 1.4038 39.9358 1.00006 39.2324C0.926325 38.7584 0.926325 38.7584 0.925655 38.2373C0.924741 38.1409 0.923826 38.0444 0.922884 37.9451C0.920558 37.6239 0.922395 37.3028 0.924243 36.9816C0.923448 36.7506 0.922405 36.5195 0.921131 36.2885C0.918464 35.6623 0.919496 35.0361 0.921355 34.4099C0.92284 33.7541 0.921461 33.0982 0.920541 32.4423C0.919476 31.3409 0.920879 30.2396 0.923671 29.1382C0.926859 27.8656 0.925828 26.5931 0.922602 25.3204C0.919942 24.227 0.919567 23.1336 0.9211 22.0402C0.922013 21.3875 0.922139 20.7349 0.920202 20.0821C0.918507 19.4684 0.919685 18.8548 0.923067 18.2411C0.923841 18.0161 0.923619 17.7912 0.922325 17.5662C0.920719 17.2586 0.92274 16.9512 0.925655 16.6435C0.925876 16.4716 0.926098 16.2996 0.926326 16.1224C1.03469 15.4258 1.36354 14.965 1.88812 14.504C2.48794 14.1364 3.09878 14.0967 3.78326 14.1836C4.75332 14.597 5.52723 15.1749 6.34674 15.8315C6.46721 15.9267 6.58768 16.0219 6.71181 16.1199C7.0059 16.3525 7.29922 16.5859 7.59186 16.8203C8.08844 16.3435 8.50396 15.862 8.90106 15.3005C9.74414 14.161 10.7099 13.1511 11.6934 12.1328C11.7743 12.0479 11.8552 11.963 11.9386 11.8755C13.0199 10.7425 14.1531 9.73925 15.4062 8.79999C15.6317 8.62984 15.854 8.45544 16.0759 8.28072C17.3306 7.30469 18.6719 6.48823 20.043 5.68749C20.1334 5.63405 20.2237 5.58061 20.3168 5.52555C23.8882 3.43324 28.0039 2.18522 32.0547 1.43944C32.1861 1.41503 32.3174 1.39063 32.4527 1.36548C36.4801 0.655024 40.9267 0.709408 44.9454 1.43944Z" fill="#A2659C"/>
</svg>
